<svg width="176" height="49" viewBox="0 0 176 49" fill="none" xmlns="http://www.w3.org/2000/svg">
<g clip-path="url(#clip0_111_1062)">
<path d="M173.554 44.9495C173.554 44.6208 173.27 44.4564 172.701 44.4564H171.961V45.515H172.662C173.052 45.515 173.316 45.4493 173.435 45.3243C173.514 45.2454 173.554 45.1205 173.554 44.9561M174.142 44.989C174.142 45.5939 173.832 45.9424 173.217 46.0279L174.03 47.2707C174.076 47.343 174.103 47.4153 174.103 47.4877C174.103 47.5731 173.99 47.6257 173.772 47.6455C173.614 47.6323 173.501 47.5666 173.415 47.4351L172.543 46.0674H171.954V47.3627C171.954 47.5403 171.855 47.6323 171.657 47.6455C171.472 47.6323 171.373 47.5403 171.373 47.3627V44.0882C171.373 43.9698 171.439 43.9106 171.564 43.9106H172.774C173.395 43.9106 173.805 44.0619 173.99 44.3578C174.09 44.5156 174.142 44.726 174.142 44.9956M175.273 45.7452C175.273 45.2849 175.16 44.8509 174.929 44.4498C174.704 44.0487 174.387 43.7331 173.984 43.4964C173.594 43.2662 173.171 43.1479 172.715 43.1479C172.258 43.1479 171.835 43.2662 171.445 43.503C171.062 43.7331 170.751 44.0487 170.52 44.4498C170.288 44.8509 170.169 45.2783 170.169 45.7517C170.169 46.2252 170.282 46.6329 170.513 47.0274C170.745 47.4219 171.055 47.7375 171.452 47.9742C171.842 48.2044 172.265 48.3227 172.715 48.3227C173.164 48.3227 173.594 48.2044 173.99 47.9742C174.38 47.7441 174.691 47.4351 174.922 47.0405C175.154 46.646 175.273 46.2186 175.273 45.7517M176 45.7452C176 46.3304 175.855 46.8761 175.564 47.3693C175.273 47.869 174.876 48.2636 174.367 48.5594C173.858 48.8553 173.309 49 172.715 49C172.12 49 171.578 48.8553 171.069 48.566C170.566 48.2767 170.163 47.8822 169.865 47.3693C169.568 46.8696 169.422 46.3304 169.422 45.7386C169.422 44.8312 169.74 44.0553 170.381 43.4175C171.022 42.7797 171.796 42.4575 172.708 42.4575C173.62 42.4575 174.394 42.7797 175.035 43.4175C175.669 44.0553 175.993 44.8246 175.993 45.7386M164.729 17.9312C166.977 15.5048 169.092 14.295 171.062 14.295C172.417 14.295 173.574 14.7421 174.546 15.6298C175.517 16.5174 176 17.6418 176 18.9767C176 20.3838 175.61 21.3898 174.817 22.0145C174.03 22.626 172.827 23.1981 171.181 23.7373C168.894 24.5263 167.228 25.3417 166.203 26.1833C165.218 26.9724 164.729 28.294 164.729 30.1417V43.3977C164.729 44.943 164.312 46.2252 163.473 47.2575C162.633 48.2899 161.47 48.8093 159.989 48.8093C158.508 48.8093 157.431 48.2899 156.578 47.2444C155.739 46.1989 155.316 44.9101 155.316 43.4043V20.0419C155.316 18.2928 155.699 16.9909 156.459 16.1426C157.398 15.0446 158.522 14.4988 159.85 14.4988C162.045 14.4988 163.671 15.6429 164.722 17.9312M145.003 28.2085C144.005 24.1778 141.863 22.1592 138.591 22.1592C135.702 22.1592 133.613 24.1778 132.324 28.2085H145.003ZM132.641 34.8103C133.296 36.7566 134.234 38.1571 135.451 39.0317C136.766 40.0443 138.24 40.5572 139.873 40.5572C141.704 40.5572 143.483 40.1232 145.188 39.2355L147.879 37.8481C148.328 37.6114 148.93 37.4536 149.677 37.3747C150.344 37.3747 150.992 37.5654 151.627 37.927C152.261 38.2887 152.764 38.7818 153.141 39.413C153.517 40.0311 153.709 40.6755 153.709 41.3396C153.709 43.1545 152.447 44.8049 149.921 46.2844C146.847 48.0926 143.324 48.9869 139.358 48.9869C136.746 48.9869 134.281 48.4608 131.967 47.4088C129.647 46.3501 127.67 44.8115 126.031 42.7797C123.684 39.8536 122.52 36.0662 122.52 31.4239C122.52 28.3335 123.234 25.46 124.656 22.8233C126.07 20.1865 128.027 18.0824 130.513 16.5306C133.005 14.9788 135.728 14.2029 138.71 14.2029C141.691 14.2029 144.19 14.9393 146.576 16.3925C148.963 17.8523 150.834 19.8249 152.189 22.3104C153.544 24.8025 154.225 27.4852 154.225 30.3653C154.225 31.8973 153.914 33.0217 153.293 33.7187C152.671 34.4223 151.633 34.7774 150.186 34.7774H132.635L132.641 34.8103ZM99.2248 31.174C99.2248 33.3505 99.8197 35.2771 100.996 36.9604C102.173 38.6503 103.76 39.492 105.756 39.492C107.078 39.492 108.222 39.0777 109.18 38.2558C110.132 37.4404 110.859 36.3752 111.349 35.0733C111.838 33.7779 112.082 32.4497 112.082 31.1149C112.082 29.7801 111.838 28.4847 111.349 27.1959C110.859 25.9006 110.132 24.8485 109.18 24.0331C108.222 23.2112 107.072 22.797 105.756 22.797C104.441 22.797 103.204 23.1981 102.213 24.0068C101.221 24.809 100.474 25.8545 99.9784 27.1433C99.476 28.4189 99.2248 29.7735 99.2248 31.174ZM112.023 17.3328V5.32609C112.023 3.82032 112.439 2.54469 113.279 1.5255C114.118 0.512882 115.282 0 116.763 0C118.243 0 119.354 0.512882 120.187 1.5255C121.02 2.53811 121.436 3.80717 121.436 5.32609V43.2728C121.436 44.8312 121.033 46.1397 120.246 47.2115C119.447 48.2767 118.309 48.8093 116.849 48.8093C115.612 48.8093 114.647 48.4937 113.927 47.8625C113.213 47.2246 112.631 46.2646 112.175 44.9693C111.15 46.4027 109.967 47.4285 108.618 48.0597C107.276 48.6844 105.703 49 103.905 49C101.816 49 99.8528 48.4477 98.0084 47.3496C96.1707 46.2449 94.604 44.7786 93.3347 42.9309C90.988 39.4196 89.8179 35.3429 89.8179 30.7203C89.8179 28.4124 90.3534 26.0715 91.4177 23.6847C92.4886 21.2912 93.8768 19.3383 95.589 17.8062C98.22 15.4259 101.248 14.2292 104.665 14.2292C107.124 14.2292 109.577 15.2615 112.029 17.3262M68.4922 17.8654C69.8143 16.5964 71.1364 15.6889 72.4387 15.13C73.741 14.5777 75.2879 14.295 77.0727 14.295C80.3846 14.295 83.1412 15.2681 85.3426 17.2144C86.6581 18.3914 87.5505 19.7131 88.0264 21.1794C88.4958 22.6457 88.7404 24.4211 88.7404 26.5055V43.3977C88.7404 44.943 88.3239 46.2252 87.4844 47.2575C86.6448 48.2899 85.4814 48.8093 84.0006 48.8093C82.5198 48.8093 81.4423 48.2833 80.5895 47.2312C79.75 46.1857 79.3269 44.9035 79.3269 43.3912V28.728C79.3269 26.9724 78.8576 25.5126 77.899 24.3488C76.9537 23.1849 75.6316 22.5997 73.9261 22.5997C72.9609 22.5997 72.0751 22.8693 71.2819 23.4085C70.4886 23.9411 69.8738 24.6512 69.4243 25.5258C68.9748 26.4003 68.75 27.3406 68.75 28.34V43.3846C68.75 44.9364 68.3335 46.2186 67.494 47.2509C66.6544 48.2833 65.491 48.8027 64.0102 48.8027C62.5294 48.8027 61.4519 48.2833 60.5992 47.2378C59.7596 46.1923 59.3365 44.9035 59.3365 43.3977V20.1734C59.3365 18.6282 59.7266 17.3196 60.5132 16.2347C61.3065 15.1432 62.4171 14.5711 63.878 14.5054C66.0661 14.5054 67.5998 15.6232 68.4856 17.872M36.6821 31.6475C36.6821 32.956 36.9201 34.2579 37.4093 35.5467C37.8918 36.8421 38.6124 37.8941 39.5643 38.7226C40.5162 39.5577 41.6466 39.9654 42.9489 39.9654C44.3173 39.9654 45.5006 39.5511 46.5054 38.7358C47.5168 37.9204 48.2837 36.8749 48.8125 35.5796C49.348 34.2908 49.6124 32.9823 49.6124 31.6475C49.6124 30.3127 49.348 28.9844 48.8191 27.6825C48.2969 26.374 47.53 25.3154 46.512 24.5C45.5072 23.6846 44.3173 23.2704 42.9489 23.2704C40.9856 23.2704 39.4585 24.1384 38.348 25.8743C37.2374 27.6036 36.6821 29.5368 36.6821 31.6475ZM27.4008 31.6541C27.4008 29.3592 27.7512 27.1499 28.4585 25.0458C29.1659 22.9351 30.2169 21.0874 31.6184 19.5158C33.0992 17.8588 34.851 16.5635 36.887 15.6363C38.9099 14.7026 40.9988 14.2358 43.1605 14.2358C45.3221 14.2358 47.378 14.7026 49.4273 15.6429C51.4832 16.5832 53.2284 17.872 54.6761 19.5158C56.0841 21.1137 57.1352 22.9548 57.8161 25.0392C58.497 27.117 58.8407 29.3264 58.8407 31.6541C58.8407 33.9818 58.497 36.1253 57.8161 38.1834C57.1352 40.2547 56.0841 42.1024 54.6761 43.7134C53.2416 45.3638 51.503 46.646 49.4669 47.5863C47.4243 48.5266 45.3419 48.9934 43.2266 48.9934C41.1112 48.9934 38.9363 48.5266 36.887 47.5929C34.8377 46.6592 33.0859 45.3638 31.6184 43.7068C28.8089 40.6295 27.4008 36.6053 27.4008 31.6409M14.5962 33.962L19.6599 18.3849C20.0102 17.3131 20.5787 16.3991 21.3588 15.6363C22.1322 14.8802 22.9982 14.4988 23.9435 14.4988C25.3582 14.4988 26.6076 14.867 27.6983 15.6035C28.7758 16.3399 29.3245 17.3525 29.3245 18.6545C29.3245 19.8249 29.027 21.232 28.4387 22.8759L20.3738 43.4569C19.7194 45.2323 18.979 46.5671 18.1659 47.4614C17.3594 48.3622 16.1761 48.8027 14.6028 48.8027C12.104 48.8027 10.2861 47.2641 9.16887 44.1736L0.45613 21.7515C0.152043 20.9032 0 19.8709 0 18.661C0 17.3525 0.542067 16.3268 1.6262 15.6035C2.71695 14.867 3.96635 14.5054 5.38101 14.5054C6.30649 14.5054 7.13281 14.8867 7.85998 15.6363C8.59375 16.3859 9.12921 17.2868 9.47957 18.3257L14.6028 33.9686L14.5962 33.962Z" fill="black"/>
</g>
<rect x="0.5" y="0.5" width="175" height="48" stroke="black"/>
<defs>
<clipPath id="clip0_111_1062">
<rect width="176" height="49" fill="white"/>
</clipPath>
</defs>
</svg>
