<svg width="50" height="50" viewBox="0 0 50 50" fill="none" xmlns="http://www.w3.org/2000/svg">
<path d="M25 50C38.8071 50 50 38.8071 50 25C50 11.1929 38.8071 0 25 0C11.1929 0 0 11.1929 0 25C0 38.8071 11.1929 50 25 50Z" fill="#F6BE00"/>
<path d="M34.8033 15.2864C35.3448 15.3551 36.5519 15.3551 37.6124 16.4891C37.6124 16.4891 38.4697 17.3482 38.7179 19.3184C39.0112 21.6208 38.9999 23.9233 38.9999 23.9233V26.0767C38.9999 26.0767 39.0112 28.3792 38.7179 30.6816C38.4697 32.6289 37.6124 33.5109 37.6124 33.5109C36.5519 34.6334 35.3448 34.6334 34.8033 34.7022C34.8033 34.7022 30.9001 35 25 35C17.7124 34.9313 15.4787 34.7136 15.4787 34.7136C14.8582 34.5991 13.4481 34.6334 12.3876 33.5109C12.3876 33.5109 11.5303 32.6403 11.2821 30.6816C10.9888 28.3792 11.0001 26.0767 11.0001 26.0767V23.9233C11.0001 23.9233 10.9888 21.6208 11.2821 19.3184C11.5303 17.3482 12.3876 16.4891 12.3876 16.4891C13.4481 15.3436 14.6552 15.3436 15.1967 15.2864C15.1967 15.2864 19.1 15 25 15C30.9001 15 34.8033 15.2864 34.8033 15.2864ZM29.6704 24.7136L22.1007 20.693V28.677L29.6704 24.7136Z" fill="black"/>
</svg>
